<svg t="1709714267865" class="icon" viewBox="0 0 1024 1024" version="1.1"
  xmlns="http://www.w3.org/2000/svg" p-id="4459" width="48" height="48">
  <path
    d="M85.333333 768h170.666667v170.666667H85.333333v-170.666667z m682.666667 0h170.666667v170.666667h-170.666667v-170.666667z"
    fill="#2E2F30" p-id="4460"></path>
  <path
    d="M938.666667 469.333333v341.333334H85.333333v-341.333334H42.666667V384h53.162666l85.333334-298.666667h661.674666l85.333334 298.666667H981.333333v85.333333h-42.666666zM170.666667 469.333333v256h682.666666v-256H170.666667z m668.757333-85.333333l-60.928-213.333333H245.504L184.576 384h654.848zM298.666667 682.666667a85.333333 85.333333 0 1 1 0-170.666667 85.333333 85.333333 0 0 1 0 170.666667z m426.666666 0a85.333333 85.333333 0 1 1 0-170.666667 85.333333 85.333333 0 0 1 0 170.666667z"
    fill="#2E2F30" p-id="4461"></path>
</svg>